<?xml version="1.0" standalone="no"?>
<!DOCTYPE svg PUBLIC "-//W3C//DTD SVG 20010904//EN"
 "http://www.w3.org/TR/2001/REC-SVG-20010904/DTD/svg10.dtd">
<svg version="1.0" xmlns="http://www.w3.org/2000/svg"
 width="279.000000pt" height="279.000000pt" viewBox="0 0 279.000000 279.000000"
 preserveAspectRatio="xMidYMid meet">
<metadata>
Created by potrace 1.14, written by Peter Selinger 2001-2017
</metadata>
<g transform="translate(0.000000,279.000000) scale(0.100000,-0.100000)"
fill="#000000" stroke="none">
<path d="M1313 2677 c-71 -48 -178 -155 -203 -205 -19 -35 -23 -61 -24 -141
-1 -92 1 -100 26 -134 16 -19 37 -38 47 -42 12 -4 21 -19 25 -43 4 -20 9 -44
12 -52 3 -12 -11 -20 -52 -33 -85 -26 -161 -65 -218 -112 l-52 -42 -45 23
c-57 30 -99 36 -174 23 -67 -12 -187 -64 -225 -99 -14 -12 -34 -30 -45 -39
-24 -19 -96 -114 -124 -164 -26 -46 -66 -160 -91 -255 -23 -91 -37 -222 -24
-222 5 0 36 18 68 39 33 22 63 38 68 35 5 -3 7 0 6 8 -2 7 5 12 14 12 10 -1
16 3 15 10 -1 6 4 10 11 8 6 -1 11 4 10 10 -2 7 5 12 14 12 10 -1 16 2 13 6
-12 20 291 270 327 270 5 0 7 -12 4 -27 -23 -107 -27 -253 -11 -363 10 -70 46
-210 65 -255 38 -88 81 -172 110 -215 l30 -45 -27 -25 c-87 -79 -179 -219
-243 -367 -57 -133 -57 -133 -23 -133 48 0 138 27 219 67 93 45 191 136 223
206 l22 48 62 -56 c77 -69 237 -185 256 -185 15 0 186 120 236 166 17 15 42
38 56 51 l27 25 27 -57 c35 -71 116 -145 215 -195 112 -57 229 -86 244 -62 7
12 -68 186 -120 276 -49 85 -106 159 -162 211 l-33 30 31 43 c29 41 30 45 15
61 -16 19 -11 56 7 45 6 -4 5 -10 -3 -15 -10 -6 -11 -11 -3 -19 14 -14 59 43
50 65 -3 8 1 18 9 22 28 16 82 180 100 303 16 107 12 233 -11 369 l-7 44 83
-58 c46 -32 89 -63 96 -69 6 -6 49 -42 94 -81 46 -38 98 -83 114 -99 32 -30
159 -116 172 -116 11 0 -5 138 -26 220 -81 320 -240 508 -471 556 -80 17 -127
11 -190 -21 l-45 -23 -45 39 c-49 44 -162 102 -231 119 l-45 12 10 50 c8 39
16 54 38 67 51 29 64 65 62 169 -3 125 -19 158 -127 263 -87 84 -136 119 -167
119 -9 0 -39 -15 -66 -33z m105 -1381 c-7 -8 -15 -12 -17 -11 -5 6 10 25 20
25 5 0 4 -6 -3 -14z m34 -48 c-8 -8 -9 -4 -5 13 4 13 8 18 11 10 2 -7 -1 -18
-6 -23z m508 -444 c0 -8 -19 -13 -24 -6 -3 5 1 9 9 9 8 0 15 -2 15 -3z m-61
-58 c10 -12 9 -14 -5 -12 -10 2 -20 8 -22 14 -5 17 13 15 27 -2z m-25 -55 c-4
-3 -9 0 -11 7 -3 6 -10 9 -15 6 -7 -4 -8 -2 -4 5 6 9 11 9 22 0 8 -6 12 -15 8
-18z"/>
</g>
</svg>
